<svg xmlns="http://www.w3.org/2000/svg" viewBox="0 0 399.03 354.9"><defs><style>.cls-1{fill:#9cc1e6;}.cls-2{fill:#3f9fd9;}.cls-3{fill:#6eacde;}.cls-4{fill:#4156a6;}.cls-5{fill:#f99c1c;}.cls-6{fill:#1f89ca;}.cls-7{fill:#ed1968;}</style></defs><title>area_catalog_icon</title><g id="Layer_2" data-name="Layer 2"><g id="Layer_1-2" data-name="Layer 1"><polygon class="cls-1" points="137.78 168.58 91.68 141.96 137.78 115.34 183.88 141.96 137.78 168.58"/><polygon class="cls-2" points="399.03 266.17 245.35 354.9 245.35 177.45 399.03 88.72 399.03 266.17"/><polygon class="cls-3" points="183.88 141.95 137.78 115.33 137.78 62.1 183.88 88.71 183.88 141.95"/><path class="cls-4" d="M292.81,275.47v-79.1l30.63-17.68q10.53-6.09,18-6.39a11.92,11.92,0,0,1,11.38,6.2q3.93,6.51,3.94,21,0,20.38-8.62,34.69t-24.68,23.59Zm20-29.23,8.09-4.67a36.19,36.19,0,0,0,8.4-6.51,23.82,23.82,0,0,0,5.21-9.27,48.36,48.36,0,0,0,1.81-14.49q0-8.85-1.65-12.75c-1.1-2.6-2.78-3.87-5.05-3.83s-5.18,1.08-8.72,3.13l-8.09,4.66Z"/><path class="cls-4" d="M263.54,330.87c-3.29,1.9-5.79,2.41-7.51,1.55s-2.59-3-2.59-6.4a18.31,18.31,0,0,1,2.53-9.53,20.29,20.29,0,0,1,7.54-7.16,17.82,17.82,0,0,1,3-1.44,12.92,12.92,0,0,1,2.53-.65v5.32a12,12,0,0,0-5.18,1.76,10.24,10.24,0,0,0-3.79,3.53,9.62,9.62,0,0,0-1.24,5c0,2,.44,3.1,1.31,3.45s2.13,0,3.78-.9a20.91,20.91,0,0,0,2.63-1.81,25.24,25.24,0,0,0,2.54-2.38v5.36a30,30,0,0,1-2.54,2.23A26,26,0,0,1,263.54,330.87Z"/><path class="cls-4" d="M272.76,325.22l6.94-24.92,5.6-3.23,6.94,16.9-5.51,3.19-1.52-3.58-5.45,3.15L278.27,322Zm7.7-13.28,4.05-2.33-2-5Z"/><path class="cls-4" d="M298.6,310.3V293.94l-5.09,2.94v-4.55L309,283.4V288l-5.09,2.94v16.36Z"/><path class="cls-4" d="M310.24,303.58l6.95-24.92,5.59-3.23,7,16.9-5.51,3.18-1.52-3.57-5.46,3.15-1.49,5.31ZM318,290.3l4-2.34-2-5Z"/><path class="cls-4" d="M334.51,289.57V268.66l5.28-3.05v16.24l8.16-4.71v4.67Z"/><path class="cls-4" d="M360.57,274.85q-4.5,2.59-6.87,1.44t-2.38-6.81a20.57,20.57,0,0,1,1.07-6.9,15.42,15.42,0,0,1,3.14-5.29,20.74,20.74,0,0,1,5-4,11.86,11.86,0,0,1,5.05-1.83,3.25,3.25,0,0,1,3.14,1.67c.71,1.18,1.06,3.06,1.06,5.66a18,18,0,0,1-2.39,9.57A18.92,18.92,0,0,1,360.57,274.85Zm0-5.2a7.14,7.14,0,0,0,2.94-3,10.62,10.62,0,0,0,.92-4.73c0-2.06-.31-3.34-.92-3.84s-1.59-.36-2.94.41a7.16,7.16,0,0,0-2.93,3,11,11,0,0,0-.92,4.9c0,1.93.31,3.15.92,3.68S359.22,270.43,360.57,269.65Z"/><path class="cls-4" d="M383.94,261.36c-3.23,1.86-5.68,2.36-7.37,1.51s-2.53-3-2.53-6.38a18.33,18.33,0,0,1,2.62-9.63,20.69,20.69,0,0,1,7.64-7.27,27.39,27.39,0,0,1,3.06-1.54,13.91,13.91,0,0,1,2.57-.8v5.23a9.64,9.64,0,0,0-2.56.73,26.27,26.27,0,0,0-2.7,1.36,10.89,10.89,0,0,0-3.92,3.63,9.68,9.68,0,0,0-1.31,5.17c0,1.91.38,3.06,1.14,3.47s1.88.18,3.36-.68a13.16,13.16,0,0,0,1.38-.91c.43-.32.83-.66,1.21-1V251.2l-3.6,2.07v-3.76l8-4.63V255.4a24.11,24.11,0,0,1-7,6Z"/><polygon class="cls-3" points="42.76 67.61 21.38 55.26 21.38 30.57 42.76 42.92 42.76 67.61"/><polygon class="cls-5" points="42.76 42.92 21.38 30.57 42.76 18.23 64.14 30.57 42.76 42.92"/><polygon class="cls-2" points="64.14 55.26 42.76 67.61 42.76 42.92 64.14 30.57 64.14 55.26"/><polygon class="cls-3" points="16.04 98.04 0 88.78 0 70.26 16.04 79.52 16.04 98.04"/><polygon class="cls-6" points="16.04 79.52 0 70.26 16.04 61 32.07 70.26 16.04 79.52"/><polygon class="cls-2" points="32.07 88.78 16.04 98.04 16.04 79.52 32.07 70.26 32.07 88.78"/><polygon class="cls-3" points="56.18 122.1 34.8 109.75 34.8 85.06 56.18 97.41 56.18 122.1"/><polygon class="cls-7" points="56.18 97.41 34.8 85.06 56.18 72.72 77.56 85.06 56.18 97.41"/><polygon class="cls-2" points="77.56 109.75 56.18 122.1 56.18 97.41 77.56 85.06 77.56 109.75"/><polygon class="cls-3" points="82.91 81.08 66.87 71.82 66.87 53.3 82.91 62.56 82.91 81.08"/><polygon class="cls-7" points="82.91 62.56 66.87 53.3 82.91 44.05 98.94 53.3 82.91 62.56"/><polygon class="cls-2" points="98.94 71.82 82.91 81.08 82.91 62.56 98.94 53.3 98.94 71.82"/><polygon class="cls-3" points="112.62 142.97 80.92 124.67 80.92 88.07 112.62 106.37 112.62 142.97"/><polygon class="cls-5" points="112.62 106.37 80.92 88.07 112.62 69.77 144.32 88.07 112.62 106.37"/><polygon class="cls-2" points="144.32 124.67 112.62 142.97 112.62 106.37 144.32 88.07 144.32 124.67"/><polygon class="cls-3" points="137.78 115.25 137.78 168.49 91.68 141.87 91.68 141.87 91.68 141.87 91.68 266.08 245.35 354.81 245.35 177.36 137.78 115.25"/><path class="cls-4" d="M172.83,267.88q-19-11-29-27.52a69.6,69.6,0,0,1-10-36.59q0-20.7,10.29-26t30.08,6.13a125,125,0,0,1,12,7.83,109.54,109.54,0,0,1,10.12,8.52v20.57a78.61,78.61,0,0,0-10.07-8.75,122.46,122.46,0,0,0-10.62-6.9q-10.29-5.94-15.43-3.54T155.13,216q0,11.24,4.48,18.8a35.53,35.53,0,0,0,13.22,12.62,43,43,0,0,0,5.42,2.68,32.38,32.38,0,0,0,4.75,1.53v-12l-14.16-8.18V216.67l31.53,18.2v41.38q-4.1.57-10.9-1.05T172.83,267.88Z"/><polygon class="cls-1" points="245.35 0 137.78 62.11 137.78 62.11 183.88 88.72 137.78 115.34 245.35 177.45 399.03 88.72 245.35 0"/><polygon class="cls-5" points="321.26 122.1 289.57 103.8 321.26 85.5 352.96 103.8 321.26 122.1"/><polygon class="cls-7" points="236.71 79.52 205.01 61.22 236.71 42.92 268.4 61.22 236.71 79.52"/><polygon class="cls-6" points="236.71 147.16 205.01 128.86 236.71 110.56 268.4 128.86 236.71 147.16"/><polygon class="cls-7" points="268.4 105.08 247.02 92.73 268.4 80.39 289.79 92.73 268.4 105.08"/><polygon class="cls-5" points="214.62 103.8 193.24 91.45 214.62 79.11 236 91.45 214.62 103.8"/><polygon class="cls-6" points="295.29 74.91 273.91 62.56 295.29 50.22 316.67 62.56 295.29 74.91"/></g></g></svg>